<svg width="21" height="20" viewBox="0 0 21 20" fill="none" xmlns="http://www.w3.org/2000/svg">
<path d="M19.4776 5.00878H13.9201L15.1899 4.37962C15.2643 4.34404 15.3325 4.29459 15.3919 4.23521C15.8595 3.7671 16.1171 3.14302 16.1171 2.48082C16.1171 1.81724 15.8598 1.19478 15.3919 0.725046C14.4254 -0.24122 12.8554 -0.24122 11.8893 0.725046C11.8369 0.778189 11.7925 0.838724 11.7576 0.904113L9.98845 4.19478L8.2195 0.904344C8.18438 0.838956 8.13979 0.77842 8.08734 0.726433C7.12177 -0.242144 5.55083 -0.242144 4.58549 0.726433C3.61992 1.69385 3.61992 3.26779 4.58549 4.23521C4.64418 4.29459 4.7128 4.34404 4.78674 4.37962L6.05661 5.00878H0.764094C0.34219 5.00878 0 5.35213 0 5.77449V10.3198C0 10.7424 0.34219 11.085 0.764094 11.085H1.64695V19.235C1.64695 19.6576 1.98891 20 2.41104 20H17.8785C18.3001 20 18.6428 19.658 18.6428 19.235V11.085H19.4776C19.8995 11.085 20.2421 10.7428 20.2421 10.3198V5.77449C20.2415 5.35213 19.8995 5.00878 19.4776 5.00878ZM9.30314 18.469V11.085H10.9579V18.4693H9.30314V18.469ZM10.9718 9.55407H9.3177V6.54067H10.9718V9.55407ZM13.0404 1.7433C13.4129 1.43946 13.9642 1.46026 14.3112 1.80869C14.4903 1.98775 14.5892 2.22643 14.5892 2.48082C14.5892 2.69801 14.5171 2.90457 14.3829 3.07278L11.5806 4.46003L13.0404 1.7433ZM5.66567 1.80869C6.00046 1.47274 6.57324 1.44686 6.93577 1.7433L8.39533 4.46003L5.59335 3.07278C5.2976 2.69963 5.32163 2.15342 5.66567 1.80869ZM1.5275 6.54067H7.78951V9.55407H1.5275V6.54067ZM3.17445 11.085H8.53951V18.4693H3.17445V11.085ZM17.1148 18.469H11.7213V11.085H17.1148V18.469ZM18.7142 9.55407H12.5V6.54067H18.7144V9.55407H18.7142Z" fill="black"/>
</svg>
