<svg width="13" height="20" viewBox="0 0 13 20" fill="none" xmlns="http://www.w3.org/2000/svg">
<path d="M3.51653 19.9758C2.99719 19.8725 2.51286 19.4795 2.26827 18.9643C1.43466 17.2082 0.647221 15.132 0.303604 13.7845C0.0596872 12.8287 0.0035012 12.4614 0 11.8C0 11.0975 0.0533516 10.863 0.328446 10.4481C0.981502 9.46457 2.40215 8.79534 4.4727 8.4959C4.96286 8.42421 7.01823 8.42421 7.56525 8.49557C9.82252 8.7875 11.5288 9.57177 12.2208 10.6351C12.4416 10.9743 12.5093 11.2617 12.5091 11.8594C12.5088 12.6798 12.3262 13.5651 11.8792 14.9129C11.3956 16.3711 10.3079 18.9281 10.0024 19.3248C9.82236 19.5585 9.51575 19.7868 9.22298 19.905L8.98941 20H6.3445C4.88984 20 3.61724 19.9833 3.51653 19.97V19.9758ZM8.29767 7.88803C8.09627 7.84802 7.65678 7.78466 7.32117 7.74798C6.55374 7.66295 5.06406 7.6913 4.29747 7.80467C4.02204 7.84635 3.78846 7.86635 3.77846 7.84968C3.76178 7.83301 3.76179 7.23714 3.76179 6.52473C3.76179 5.14176 3.73511 4.6846 3.56905 3.83748C3.32497 2.59755 2.7206 1.26743 1.96017 0.296268C1.8518 0.15622 1.76177 0.0333447 1.76177 0.0216741C1.76177 0.00500173 3.77596 0 6.2378 0C8.69964 0 10.7138 0.0166724 10.7138 0.0216741C10.7138 0.0383465 10.6238 0.15672 10.5154 0.296268C9.755 1.26743 9.15063 2.59755 8.90654 3.83748C8.73732 4.69677 8.70614 5.13892 8.71348 6.57975C8.71348 7.3225 8.71348 7.93721 8.69014 7.94572C8.67346 7.96239 8.49457 7.92904 8.29317 7.88903L8.29767 7.88803Z" fill="black"/>
</svg>
