<svg width="14" height="20" viewBox="0 0 14 20" fill="none" xmlns="http://www.w3.org/2000/svg">
<path d="M6.66834 10.285C6.80044 10.285 6.90753 10.1779 6.90753 10.0458C6.90753 9.91373 6.80044 9.80664 6.66834 9.80664C6.53624 9.80664 6.42915 9.91373 6.42915 10.0458C6.42915 10.1779 6.53624 10.285 6.66834 10.285Z" fill="#010002"/>
<path d="M1.25674 16.7543C1.5959 15.7228 2.52929 15.0996 3.33654 15.3659C4.14473 15.6303 4.525 16.687 4.18584 17.7195C3.84668 18.751 2.91329 19.3751 2.10604 19.1088C1.77716 19.0023 1.51181 18.7622 1.33709 18.4155C1.09603 17.9362 1.06707 17.3317 1.25674 16.7543ZM7.69797 10.1131C8.00162 9.37594 9.49934 5.81243 10.1917 3.31872C10.9802 0.47744 10.8195 0.0270954 10.5691 0L5.63965 10.1131C4.6175 12.3004 5.05476 12.434 3.98777 13.3104C3.31038 13.8682 2.32934 14.3989 1.83602 14.7791C1.22871 15.1202 0.7195 15.7219 0.465364 16.4927C0.206556 17.2794 0.253272 18.1165 0.593366 18.7883C0.865255 19.3284 1.31093 19.7227 1.84536 19.8983C3.08895 20.3066 4.397 19.4106 4.97628 17.9773C5.34627 17.0617 5.12017 14.539 5.35935 13.6486C5.52006 13.0469 6.1255 12.2901 6.66834 11.6464C7.0374 11.2474 7.39431 10.8503 7.69797 10.1131Z" fill="#010002"/>
<path d="M11.9678 18.4137C11.7931 18.7603 11.5278 19.0004 11.1998 19.1069C10.3926 19.3723 9.46011 18.7481 9.11814 17.7176C8.77992 16.6861 9.16019 15.6303 9.96745 15.3631C10.7747 15.0977 11.7081 15.7219 12.0491 16.7534C12.2388 17.3317 12.2108 17.9362 11.9678 18.4137ZM6.63751 11.6492C7.17942 12.292 7.7858 13.0497 7.94557 13.6523C8.18382 14.5428 7.95771 17.0626 8.32771 17.9792C8.90699 19.4115 10.216 20.3094 11.4596 19.9011C11.994 19.7255 12.4406 19.3321 12.7125 18.7911C13.0516 18.1175 13.0993 17.2813 12.8414 16.4955C12.5873 15.7237 12.0781 15.1211 11.4717 14.7819C10.9784 14.4007 9.99641 13.8682 9.31809 13.3123C8.25109 12.4359 8.68836 12.3022 7.66621 10.115L2.73671 0C2.48631 0.0270954 2.32654 0.47744 3.11418 3.31872C3.80651 5.81337 5.30423 9.37594 5.60789 10.1131C5.91154 10.8503 6.26846 11.2474 6.63751 11.6492Z" fill="#010002"/>
</svg>
