<svg width="21" height="20" viewBox="0 0 21 20" fill="none" xmlns="http://www.w3.org/2000/svg">
<path d="M8.56071 7.23383C8.62279 7.27025 8.69373 7.2895 8.76572 7.2895C8.83771 7.2895 8.90845 7.27025 8.97053 7.23383C9.18884 7.1056 11.1035 5.94591 11.1035 4.72894C11.1035 3.97093 10.4868 3.35425 9.72878 3.35425C9.35618 3.35425 9.01489 3.50346 8.7656 3.74812C8.51632 3.50346 8.17502 3.35425 7.80242 3.35425C7.04442 3.35425 6.42773 3.97089 6.42773 4.72894C6.42773 5.94591 8.34237 7.1056 8.56071 7.23383ZM7.80246 4.16313C8.08893 4.16313 8.33032 4.37725 8.36404 4.6611C8.38821 4.86458 8.56075 5.01778 8.76564 5.01778C8.97053 5.01778 9.14307 4.86454 9.16724 4.6611C9.20092 4.37721 9.44239 4.16313 9.72882 4.16313C10.0408 4.16313 10.2947 4.41697 10.2947 4.72898C10.2947 5.22154 9.45838 5.96049 8.76564 6.40959C8.07282 5.96045 7.23662 5.2215 7.23662 4.72898C7.23658 4.41693 7.49046 4.16313 7.80246 4.16313Z" fill="black"/>
<path d="M13.3055 3.87962C13.3676 3.91608 13.4385 3.93529 13.5105 3.93529C13.5825 3.93529 13.6532 3.91604 13.7153 3.87962C13.9336 3.75139 15.8483 2.59166 15.8483 1.37469C15.8483 0.616685 15.2316 0 14.4736 0C14.101 0 13.7597 0.149216 13.5104 0.393908C13.2611 0.149216 12.9198 0 12.5473 0C11.7892 0 11.1726 0.616645 11.1726 1.37469C11.1726 2.59166 13.0872 3.75139 13.3055 3.87962ZM12.5473 0.808885C12.8337 0.808885 13.0751 1.02296 13.1088 1.30685C13.133 1.51033 13.3055 1.66357 13.5104 1.66357C13.7153 1.66357 13.8878 1.51033 13.912 1.30689C13.9458 1.023 14.1873 0.808926 14.4736 0.808926C14.7857 0.808926 15.0395 1.06276 15.0395 1.37477C15.0395 1.86734 14.2032 2.60633 13.5105 3.05543C12.8176 2.60621 11.9814 1.86726 11.9814 1.37477C11.9814 1.06272 12.2353 0.808885 12.5473 0.808885Z" fill="black"/>
<path d="M8.36698 14.413C8.15886 14.3318 7.92441 14.4348 7.84323 14.6429C7.56768 15.3494 7.33946 16.0788 7.16499 16.8107C7.11322 17.028 7.24737 17.2461 7.46463 17.2979C7.49617 17.3054 7.52768 17.309 7.55874 17.309C7.74167 17.309 7.90757 17.184 7.9518 16.9982C8.11769 16.3023 8.33467 15.6087 8.59672 14.9367C8.67798 14.7287 8.57505 14.4942 8.36698 14.413Z" fill="black"/>
<path d="M8.97836 13.119C8.77862 13.0191 8.53562 13.1 8.43576 13.2999L8.42512 13.3211C8.32521 13.5208 8.40619 13.7638 8.60596 13.8636C8.66405 13.8927 8.72573 13.9064 8.78648 13.9064C8.93481 13.9064 9.07766 13.8245 9.14852 13.6828L9.15916 13.6615C9.2591 13.4618 9.17817 13.2189 8.97836 13.119Z" fill="black"/>
<path d="M16.1609 15.2789L13.9517 16.5544C13.7582 16.6661 13.692 16.9134 13.8037 17.1068C13.8786 17.2366 14.0145 17.3091 14.1543 17.3091C14.2229 17.3091 14.2924 17.2916 14.3561 17.2549L16.5654 15.9793C16.7589 15.8676 16.8251 15.6203 16.7134 15.4269C16.6017 15.2335 16.3544 15.1672 16.1609 15.2789Z" fill="black"/>
<path d="M17.2757 14.6351L17.2589 14.6448C17.0656 14.7567 16.9996 15.0041 17.1115 15.1974C17.1864 15.3269 17.3223 15.3993 17.4619 15.3993C17.5306 15.3993 17.6003 15.3817 17.6641 15.3448L17.6809 15.3351C17.8742 15.2232 17.9403 14.9758 17.8284 14.7825C17.7165 14.5892 17.4691 14.5231 17.2757 14.6351Z" fill="black"/>
<path d="M20.8717 14.894C20.7651 14.7094 20.5351 14.6411 20.3461 14.7322C18.9693 13.7492 17.7861 12.5278 16.8274 11.0971C16.3227 10.32 15.7373 9.73242 15.117 9.3506V9.11062L18.2704 7.06276C18.8307 6.69891 19.2158 6.13854 19.3548 5.48504C19.4937 4.83149 19.3698 4.163 19.0059 3.60263C18.7514 3.21074 18.3596 2.94139 17.9024 2.84427C17.4454 2.74706 16.9779 2.83371 16.586 3.08827C16.1941 3.34279 15.9247 3.73461 15.8276 4.19164C15.7305 4.64872 15.8171 5.11623 16.0716 5.50812L16.3158 5.8841C16.4374 6.07135 16.6878 6.12468 16.8752 6.00298C17.0626 5.88132 17.1158 5.63087 16.9941 5.44354L16.75 5.06756C16.6131 4.85687 16.5665 4.60549 16.6187 4.35979C16.671 4.11409 16.8157 3.9034 17.0264 3.76659C17.2372 3.62979 17.4886 3.58322 17.7342 3.63538C17.9799 3.68763 18.1906 3.83242 18.3274 4.04311C18.5737 4.42227 18.6575 4.8746 18.5635 5.31681C18.4695 5.75902 18.209 6.13814 17.8298 6.38432L15.1156 8.14692C15.1087 7.96862 15.0259 7.80453 14.8844 7.69407C14.7367 7.57865 14.5476 7.53857 14.3657 7.58405L11.9391 8.19075H9.76887L7.34229 7.58405C7.16036 7.53865 6.97135 7.57861 6.82358 7.69403C6.67581 7.80945 6.59105 7.98312 6.59105 8.1706V8.2888L3.13741 9.02292C2.22455 9.21685 1.32401 8.63207 1.13 7.71925C1.07775 7.47351 1.12432 7.22217 1.26121 7.01148C1.39802 6.80083 1.60871 6.65604 1.85441 6.60379C2.36148 6.49599 2.8621 6.82093 2.96994 7.3282L3.06316 7.76671C3.10957 7.98517 3.32429 8.1248 3.5428 8.07819C3.76127 8.03178 3.90077 7.81702 3.85428 7.59856L3.76106 7.16005C3.56052 6.21657 2.62982 5.6121 1.68626 5.81267C1.22922 5.90976 0.83733 6.17915 0.582808 6.571C0.328327 6.9629 0.241674 7.43045 0.338801 7.88752C0.588448 9.06203 1.62946 9.86907 2.78491 9.86907C2.95665 9.86907 3.13092 9.85126 3.30552 9.81416L6.59101 9.11577V9.35297C5.97231 9.73484 5.38834 10.3216 4.88482 11.097C3.92607 12.5277 2.7429 13.7491 1.36607 14.7321C1.17718 14.6409 0.947107 14.7093 0.840472 14.8939C0.728761 15.0874 0.795071 15.3347 0.98848 15.4463L3.36695 16.8196C3.21653 17.1786 3.18865 17.5748 3.29106 17.9569C3.41328 18.413 3.70579 18.7942 4.11477 19.0303C4.38718 19.1877 4.68948 19.268 4.99584 19.268C5.14941 19.268 5.30402 19.2478 5.45626 19.207C5.83837 19.1046 6.16754 18.8823 6.4032 18.5726L8.78168 19.9458C8.84537 19.9826 8.9149 20.0001 8.98351 20.0001C9.12326 20.0001 9.25922 19.9275 9.33411 19.7978C9.4407 19.6132 9.38487 19.3797 9.2114 19.2617C9.37427 17.5779 9.84053 15.9425 10.6001 14.3969C10.6961 14.2084 10.7812 14.0213 10.8561 13.836C10.9309 14.0213 11.016 14.2084 11.1121 14.3969C11.8716 15.9424 12.3379 17.5779 12.5007 19.2617C12.3272 19.3797 12.2714 19.6131 12.378 19.7978C12.4529 19.9275 12.5888 20.0001 12.7287 20.0001C12.7973 20.0001 12.8668 19.9826 12.9305 19.9458L15.309 18.5726C15.5447 18.8823 15.8738 19.1046 16.2559 19.207C16.4083 19.2478 16.5628 19.268 16.7164 19.268C17.0227 19.268 17.3251 19.1876 17.5974 19.0303C18.3749 18.5815 18.682 17.6272 18.345 16.8197L20.7236 15.4464C20.9172 15.3348 20.9834 15.0874 20.8717 14.894ZM12.3934 8.91113L14.3082 8.43242V11.0281L12.3934 10.5494V8.91113ZM7.39994 8.43242L9.31477 8.91113V10.5494L7.39994 11.028V8.43242ZM5.24698 18.4257C4.99955 18.492 4.74112 18.458 4.51927 18.33C4.29742 18.2019 4.1387 17.9951 4.07243 17.7477C4.02622 17.5751 4.02892 17.3973 4.07811 17.2302L5.69145 18.1617C5.57132 18.2877 5.4194 18.3795 5.24698 18.4257ZM9.87828 14.0321C9.87739 14.0339 9.87651 14.0357 9.87566 14.0374C9.12716 15.5596 8.64725 17.1648 8.4457 18.8178L2.1335 15.1735C3.46424 14.1724 4.6145 12.9543 5.55847 11.545C5.55955 11.5433 5.56064 11.5417 5.56173 11.54C5.84775 11.0992 6.19759 10.6817 6.59109 10.3508V11.2897C6.59109 11.4772 6.67585 11.6509 6.82362 11.7663C6.93146 11.8505 7.0613 11.8945 7.19432 11.8945C7.24355 11.8945 7.29322 11.8885 7.34229 11.8762L9.76891 11.2695H10.3782C10.5888 12.129 10.3248 13.1567 9.87828 14.0321ZM10.1236 10.4607V8.99983H11.5846V10.4607H10.1236ZM17.1931 18.33C16.9712 18.4581 16.7127 18.4921 16.4653 18.4257C16.2929 18.3795 16.141 18.2877 16.0209 18.1616L16.8271 17.6961L17.6339 17.2303C17.755 17.6448 17.5833 18.1046 17.1931 18.33ZM16.4228 16.9956L13.2666 18.8178C13.0651 17.1648 12.5851 15.5596 11.8367 14.0374C11.8358 14.0357 11.8349 14.0339 11.834 14.0322C11.3875 13.1567 11.1235 12.129 11.3341 11.2695H11.9392L14.3658 11.8762C14.415 11.8885 14.4646 11.8945 14.5138 11.8945C14.6468 11.8945 14.7767 11.8504 14.8846 11.7662C15.0323 11.6508 15.117 11.4772 15.117 11.2897V10.3477C15.5122 10.679 15.8636 11.0976 16.1506 11.54C16.1517 11.5416 16.1528 11.5433 16.1539 11.5449C17.0979 12.9542 18.248 14.1724 19.5788 15.1735L16.4228 16.9956Z" fill="black"/>
</svg>
