<svg width="19" height="20" viewBox="0 0 19 20" fill="none" xmlns="http://www.w3.org/2000/svg">
<path d="M14.372 12.2796H12.2646C12.2359 11.3434 11.8422 10.4557 11.1676 9.80603C11.5863 9.23282 11.821 8.49478 11.821 7.72565C11.8246 7.14925 11.69 6.58038 11.4284 6.06674C11.8168 5.49669 12.131 4.87951 12.3634 4.2301C12.9314 2.66957 13.013 1.12989 12.5762 0.211916C12.5343 0.123831 12.4595 0.0557591 12.3678 0.0224001C12.2762 -0.0109589 12.175 -0.0069284 12.0863 0.0336214C11.1617 0.456131 10.2345 1.688 9.66653 3.2485C9.51013 3.67534 9.3881 4.11399 9.30159 4.56027C9.20376 4.55394 9.10563 4.55394 9.0078 4.56027C8.92128 4.11399 8.79924 3.67533 8.64287 3.24848C8.07487 1.68798 7.14765 0.456108 6.22303 0.0336214C6.13432 -0.00691172 6.03322 -0.01093 5.94157 0.0224341C5.84991 0.0557982 5.77505 0.123868 5.73316 0.211948C5.29645 1.12994 5.37799 2.6696 5.94596 4.23008C6.1784 4.87951 6.4926 5.4967 6.88096 6.06676C6.61938 6.5804 6.48475 7.14927 6.48836 7.72567C6.48836 8.4948 6.7231 9.23284 7.14182 9.80605C6.46722 10.4557 6.0735 11.3435 6.04483 12.2796H3.93742C3.83889 12.2796 3.74439 12.3187 3.67472 12.3884C3.60504 12.4581 3.5659 12.5526 3.5659 12.6511C3.5659 12.7496 3.60504 12.8441 3.67472 12.9138C3.74439 12.9835 3.83889 13.0226 3.93742 13.0226H5.61378L4.52478 19.5675C4.51592 19.6207 4.51876 19.6752 4.5331 19.7272C4.54744 19.7792 4.57294 19.8275 4.60782 19.8687C4.64269 19.9098 4.68611 19.9429 4.73506 19.9656C4.78401 19.9883 4.83731 20 4.89126 20H13.4181C13.4721 20 13.5254 19.9883 13.5743 19.9656C13.6233 19.9429 13.6667 19.9098 13.7016 19.8687C13.7365 19.8275 13.7619 19.7792 13.7763 19.7272C13.7906 19.6752 13.7935 19.6207 13.7846 19.5675L12.6956 13.0226H14.372C14.4705 13.0226 14.565 12.9835 14.6347 12.9138C14.7044 12.8441 14.7435 12.7496 14.7435 12.6511C14.7435 12.5526 14.7044 12.4581 14.6347 12.3884C14.565 12.3187 14.4705 12.2796 14.372 12.2796L14.372 12.2796ZM7.92949 9.59254C7.48583 9.12792 7.23138 8.44746 7.23138 7.72565C7.22594 7.20154 7.36657 6.68627 7.63753 6.2376C7.67689 6.17395 7.69611 6.09989 7.69267 6.02513C7.68923 5.95037 7.66329 5.87839 7.61825 5.81862C7.23429 5.30904 6.89744 4.67186 6.64418 3.97595C6.23575 2.85386 6.10197 1.69931 6.27188 0.929933C6.89658 1.41009 7.53621 2.38051 7.94464 3.50262C8.12724 3.99797 8.25754 4.51106 8.33339 5.03351C8.3406 5.08493 8.35851 5.13427 8.38597 5.17834C8.41343 5.22242 8.44982 5.26024 8.4928 5.28938C8.53578 5.31852 8.58439 5.33833 8.6355 5.34752C8.6866 5.35671 8.73907 5.35509 8.78951 5.34276C9.02943 5.28406 9.27996 5.28406 9.51988 5.34276C9.57032 5.35508 9.62279 5.35669 9.67389 5.34749C9.725 5.33829 9.7736 5.31848 9.81658 5.28934C9.85956 5.2602 9.89595 5.22237 9.92341 5.1783C9.95086 5.13423 9.96878 5.08489 9.976 5.03347C10.0519 4.51103 10.1821 3.99795 10.3647 3.50261C10.7732 2.38049 11.4128 1.41005 12.0375 0.929919C12.2074 1.69927 12.0736 2.85382 11.6652 3.97596C11.4119 4.67184 11.0751 5.30902 10.6911 5.81861C10.6461 5.87838 10.6201 5.95036 10.6167 6.02512C10.6133 6.09988 10.6325 6.17393 10.6718 6.23758C10.9428 6.68626 11.0834 7.20153 11.078 7.72564C11.078 8.44744 10.8235 9.12791 10.3799 9.59255C10.3439 9.63027 10.3162 9.67515 10.2987 9.72427C10.2812 9.77339 10.2742 9.82565 10.2782 9.87764C10.2822 9.92964 10.2971 9.98021 10.3219 10.0261C10.3468 10.0719 10.381 10.112 10.4224 10.1438C10.7507 10.3976 11.0193 10.7205 11.2092 11.0895C11.399 11.4586 11.5055 11.8648 11.5212 12.2795H6.78819C6.80382 11.8648 6.91034 11.4586 7.10021 11.0895C7.29008 10.7205 7.55868 10.3976 7.88702 10.1438C7.92839 10.112 7.96262 10.0719 7.98746 10.0261C8.0123 9.9802 8.02721 9.92963 8.03122 9.87763C8.03522 9.82563 8.02823 9.77337 8.01071 9.72425C7.99318 9.67513 7.96551 9.63025 7.92949 9.59253V9.59254ZM12.2655 14.9648H6.04385L6.36702 13.0226H11.9423L12.2655 14.9648Z" fill="#42CE02"/>
<path d="M9.1547 9.08986C9.42114 9.08986 9.65304 8.92103 9.7727 8.67201C9.85611 8.49844 9.74484 8.28613 9.57136 8.28613H8.73804C8.56456 8.28613 8.45329 8.49844 8.53669 8.67201C8.65634 8.92103 8.88826 9.08986 9.1547 9.08986Z" fill="#42CE02"/>
<path d="M2.22601 4.44238C2.15089 4.44238 2.07745 4.46466 2.01499 4.5064C1.95253 4.54814 1.90385 4.60746 1.8751 4.67686C1.84636 4.74626 1.83883 4.82263 1.85349 4.89631C1.86815 4.96999 1.90432 5.03767 1.95744 5.09079C2.01056 5.14391 2.07824 5.18008 2.15192 5.19474C2.22559 5.20939 2.30196 5.20187 2.37137 5.17313C2.44077 5.14438 2.50009 5.0957 2.54183 5.03324C2.58357 4.97078 2.60584 4.89734 2.60585 4.82222C2.60574 4.72151 2.56568 4.62496 2.49447 4.55376C2.42326 4.48255 2.32671 4.44249 2.22601 4.44238Z" fill="#42CE02"/>
<path d="M2.22602 4.11568C2.32455 4.11568 2.41905 4.07654 2.48872 4.00687C2.55839 3.9372 2.59754 3.8427 2.59754 3.74417V2.96771C2.59754 2.86917 2.55839 2.77468 2.48872 2.70501C2.41905 2.63533 2.32455 2.59619 2.22602 2.59619C2.12749 2.59619 2.03299 2.63533 1.96332 2.70501C1.89365 2.77468 1.85451 2.86917 1.85451 2.96771V3.74417C1.85451 3.8427 1.89365 3.9372 1.96332 4.00687C2.03299 4.07654 2.12749 4.11568 2.22602 4.11568Z" fill="#42CE02"/>
<path d="M2.22602 5.52881C2.12749 5.52881 2.03299 5.56795 1.96332 5.63762C1.89365 5.70729 1.85451 5.80179 1.85451 5.90032V6.67679C1.85451 6.77532 1.89365 6.86982 1.96332 6.93949C2.03299 7.00916 2.12749 7.0483 2.22602 7.0483C2.32455 7.0483 2.41905 7.00916 2.48872 6.93949C2.55839 6.86982 2.59754 6.77532 2.59754 6.67679V5.90032C2.59754 5.80179 2.55839 5.70729 2.48872 5.63762C2.41905 5.56795 2.32455 5.52881 2.22602 5.52881Z" fill="#42CE02"/>
<path d="M1.14798 4.45068H0.371514C0.272983 4.45068 0.178486 4.48983 0.108814 4.5595C0.0391415 4.62917 0 4.72367 0 4.8222C0 4.92073 0.0391415 5.01523 0.108814 5.0849C0.178486 5.15457 0.272983 5.19371 0.371514 5.19371H1.14798C1.24651 5.19371 1.34101 5.15457 1.41068 5.0849C1.48035 5.01523 1.51949 4.92073 1.51949 4.8222C1.51949 4.72367 1.48035 4.62917 1.41068 4.5595C1.34101 4.48983 1.24651 4.45068 1.14798 4.45068Z" fill="#42CE02"/>
<path d="M4.45207 4.8222C4.45207 4.72367 4.41293 4.62917 4.34325 4.5595C4.27358 4.48983 4.17908 4.45068 4.08055 4.45068H3.30406C3.20552 4.45068 3.11103 4.48983 3.04136 4.5595C2.97168 4.62917 2.93254 4.72367 2.93254 4.8222C2.93254 4.92073 2.97168 5.01523 3.04136 5.0849C3.11103 5.15457 3.20552 5.19371 3.30406 5.19371H4.08055C4.17908 5.19371 4.27358 5.15457 4.34325 5.0849C4.41293 5.01523 4.45207 4.92073 4.45207 4.8222Z" fill="#42CE02"/>
<path d="M16.751 11.2792C16.9608 11.2792 17.1309 11.1091 17.1309 10.8994C17.1309 10.6896 16.9608 10.5195 16.751 10.5195C16.5413 10.5195 16.3712 10.6896 16.3712 10.8994C16.3712 11.1091 16.5413 11.2792 16.751 11.2792Z" fill="#42CE02"/>
<path d="M16.7511 10.1929C16.8496 10.1929 16.9441 10.1537 17.0138 10.0841C17.0834 10.0144 17.1226 9.91989 17.1226 9.82136V9.04485C17.1226 8.94632 17.0834 8.85183 17.0138 8.78215C16.9441 8.71248 16.8496 8.67334 16.7511 8.67334C16.6525 8.67334 16.558 8.71248 16.4884 8.78215C16.4187 8.85183 16.3795 8.94632 16.3795 9.04485V9.82136C16.3795 9.91989 16.4187 10.0144 16.4884 10.0841C16.558 10.1537 16.6525 10.1929 16.7511 10.1929Z" fill="#42CE02"/>
<path d="M16.7511 11.6057C16.6525 11.6057 16.558 11.6449 16.4884 11.7145C16.4187 11.7842 16.3795 11.8787 16.3795 11.9772V12.7537C16.3795 12.8522 16.4187 12.9467 16.4884 13.0164C16.558 13.0861 16.6525 13.1252 16.7511 13.1252C16.8496 13.1252 16.9441 13.0861 17.0138 13.0164C17.0834 12.9467 17.1226 12.8522 17.1226 12.7537V11.9772C17.1226 11.8787 17.0834 11.7842 17.0138 11.7145C16.9441 11.6449 16.8496 11.6057 16.7511 11.6057Z" fill="#42CE02"/>
<path d="M15.673 10.5278H14.8965C14.798 10.5278 14.7035 10.567 14.6338 10.6366C14.5641 10.7063 14.525 10.8008 14.525 10.8993C14.525 10.9979 14.5641 11.0924 14.6338 11.162C14.7035 11.2317 14.798 11.2709 14.8965 11.2709H15.673C15.7715 11.2709 15.866 11.2317 15.9357 11.162C16.0054 11.0924 16.0445 10.9979 16.0445 10.8993C16.0445 10.8008 16.0054 10.7063 15.9357 10.6366C15.866 10.567 15.7715 10.5278 15.673 10.5278Z" fill="#42CE02"/>
<path d="M18.6055 10.5278H17.8291C17.7305 10.5278 17.6361 10.567 17.5664 10.6366C17.4967 10.7063 17.4576 10.8008 17.4576 10.8993C17.4576 10.9979 17.4967 11.0924 17.5664 11.162C17.6361 11.2317 17.7305 11.2709 17.8291 11.2709H18.6055C18.7041 11.2709 18.7986 11.2317 18.8682 11.162C18.9379 11.0924 18.9771 10.9979 18.9771 10.8993C18.9771 10.8008 18.9379 10.7063 18.8682 10.6366C18.7986 10.567 18.7041 10.5278 18.6055 10.5278Z" fill="#42CE02"/>
</svg>
