<svg width="54" height="50" viewBox="0 0 54 50" fill="none" xmlns="http://www.w3.org/2000/svg">
<g clip-path="url(#clip0_166_129)">
<path d="M45.3821 7.14286L38.2393 0H15.3321L8.18929 7.14286H0V50H53.5714V7.14286H45.3821ZM50 46.4286H3.57143V10.7143H9.66786L16.8107 3.57143H36.7607L43.9036 10.7143H50V46.4286Z" fill="black"/>
<path d="M26.7856 14.2857C19.8928 14.2857 14.2856 19.8929 14.2856 26.7857C14.2856 33.6786 19.8928 39.2857 26.7856 39.2857C33.6785 39.2857 39.2856 33.6786 39.2856 26.7857C39.2856 19.8929 33.6785 14.2857 26.7856 14.2857ZM26.7856 35.7143C21.8642 35.7143 17.8571 31.7071 17.8571 26.7857C17.8571 21.8643 21.8642 17.8571 26.7856 17.8571C31.7071 17.8571 35.7142 21.8643 35.7142 26.7857C35.7142 31.7071 31.7071 35.7143 26.7856 35.7143Z" fill="black"/>
</g>
<defs>
<clipPath id="clip0_166_129">
<rect width="53.5714" height="50" fill="white"/>
</clipPath>
</defs>
</svg>
