<svg width="26" height="30" viewBox="0 0 26 30" fill="none" xmlns="http://www.w3.org/2000/svg">
<path d="M25.895 22.3491V7.63207C25.9066 7.56594 25.9018 7.50117 25.8923 7.43572C25.8916 7.3314 25.8766 7.22709 25.8193 7.13028C25.7191 6.96119 25.5473 6.87802 25.3646 6.84393L19.6103 3.63545C19.5039 3.51273 19.3642 3.435 19.2067 3.41114L13.4231 0.1863C13.2117 -0.00937195 12.892 -0.0639147 12.6254 0.0853961L0.528507 6.84665C0.349879 6.88279 0.182842 6.9646 0.084665 7.12959C0.0273951 7.22641 0.012396 7.33004 0.0117142 7.43367C0.00148741 7.49912 -0.00260338 7.56457 0.00830517 7.63071V22.3477C-0.0114666 22.4643 0.00489626 22.5788 0.0485305 22.6872C0.120118 22.9184 0.306927 23.0881 0.545551 23.1413L12.4816 29.8132C12.6929 30.0089 13.0127 30.0641 13.2792 29.9148L25.3686 23.1393C25.6011 23.0834 25.7825 22.9177 25.8548 22.6913C25.8977 22.5822 25.9154 22.467 25.895 22.3491ZM12.9356 1.42238L17.6993 4.07861L6.85274 10.1574L2.08093 7.49026L12.9356 1.42238ZM12.2709 28.1851L1.37051 22.092V8.60429L6.31618 11.3682C6.41708 11.478 6.54457 11.551 6.68843 11.5769L12.2702 14.6974V28.1851H12.2709ZM12.9683 13.5752L8.20745 10.9135L19.056 4.83403L23.823 7.49162L12.9683 13.5752ZM24.5335 22.0927L13.6338 28.2008V14.7172L24.5335 8.60907V22.0927ZM15.6778 21.1253C15.7882 21.1253 15.8891 21.0925 15.9812 21.0455C15.9825 21.0448 15.9839 21.0448 15.9852 21.0441L19.4269 18.9736C19.6253 18.8542 19.7651 18.647 19.7651 18.3981V14.3074C19.7651 13.9304 19.4596 13.6256 19.0833 13.6256C18.9756 13.6256 18.8767 13.6563 18.786 13.7006C18.7806 13.704 18.7737 13.7034 18.769 13.7068L15.3294 15.7801C15.1337 15.9001 14.996 16.1067 14.996 16.3528V20.4435C14.996 20.8205 15.3014 21.1253 15.6778 21.1253ZM16.3589 16.7305L18.4022 15.5108V18.017L16.3589 19.2374V16.7305Z" fill="black"/>
</svg>
