<svg width="32" height="33" viewBox="0 0 32 33" fill="none" xmlns="http://www.w3.org/2000/svg">
<path d="M12.6699 0.399994C5.77593 0.399994 0.199997 5.97593 0.199997 12.8699C0.199997 19.7639 5.77593 25.3398 12.6699 25.3398C15.1312 25.3398 17.4092 24.6178 19.3404 23.3914L28.349 32.4L31.4665 29.2825L22.5725 20.4115C24.1713 18.314 25.1398 15.7152 25.1398 12.8699C25.1398 5.97593 19.5639 0.399994 12.6699 0.399994ZM12.6699 3.33409C17.9507 3.33409 22.2057 7.58911 22.2057 12.8699C22.2057 18.1507 17.9507 22.4057 12.6699 22.4057C7.38911 22.4057 3.13409 18.1507 3.13409 12.8699C3.13409 7.58911 7.38911 3.33409 12.6699 3.33409Z" fill="white"/>
</svg>
