<svg width="30" height="30" viewBox="0 0 30 30" fill="none" xmlns="http://www.w3.org/2000/svg">
<path d="M0 12.1875C0 13.9325 1.19754 15.3864 2.8125 15.8057V28.125H0.9375C0.421113 28.125 0 28.5443 0 29.0625C0 29.5807 0.421172 30 0.9375 30H29.0625C29.5825 30 30 29.5807 30 29.0625C30 28.5443 29.5825 28.125 29.0625 28.125H27.1875V15.8057C28.8025 15.3864 30 13.9325 30 12.1875V11.25H0V12.1875ZM18.75 15.9375C20.8228 15.9375 22.5 14.2584 22.5 12.1875C22.5 13.9325 23.6975 15.3864 25.3125 15.8057V28.125H11.25V15.9375C13.3228 15.9375 15 14.2584 15 12.1875C15 14.2584 16.6809 15.9375 18.75 15.9375ZM10.3125 15.8057V28.125H4.6875V15.8057C6.30252 15.3864 7.5 13.9325 7.5 12.1875C7.5 13.9325 8.69754 15.3864 10.3125 15.8057ZM26.25 2.8125H3.75L0 10.3125H30L26.25 2.8125ZM7.92117 4.89627L6.04617 8.64627C5.96191 8.81109 5.79715 8.90631 5.625 8.90631C5.55539 8.90631 5.48402 8.89166 5.41623 8.85686C5.18549 8.74148 5.09027 8.45953 5.20746 8.22879L7.08246 4.47879C7.19965 4.24805 7.47979 4.15471 7.71053 4.2682C7.94314 4.38357 8.03467 4.66553 7.92117 4.89627ZM11.6712 4.89627L9.79617 8.64627C9.71191 8.81109 9.54715 8.90631 9.375 8.90631C9.30539 8.90631 9.23402 8.89166 9.16623 8.85686C8.93549 8.74148 8.84027 8.45953 8.95746 8.22879L10.8325 4.47879C10.9496 4.24805 11.2317 4.15471 11.4605 4.2682C11.6931 4.38357 11.7847 4.66553 11.6712 4.89627ZM15.4688 8.4375C15.4688 8.69754 15.26 8.90625 15 8.90625C14.7418 8.90625 14.5312 8.69748 14.5312 8.4375V4.6875C14.5312 4.42746 14.7418 4.21875 15 4.21875C15.26 4.21875 15.4688 4.42752 15.4688 4.6875V8.4375ZM20.8521 8.84766C20.7788 8.88797 20.7019 8.90625 20.625 8.90625C20.4602 8.90625 20.2991 8.81836 20.2148 8.66273L18.1641 4.91273C18.0396 4.68568 18.1237 4.40004 18.3509 4.27734C18.5743 4.15283 18.8636 4.2334 18.9881 4.46227L21.0388 8.21227C21.1597 8.43932 21.0791 8.72496 20.8521 8.84766ZM24.5837 8.8568C24.5179 8.8916 24.4482 8.90625 24.375 8.90625C24.2029 8.90625 24.0381 8.81104 23.9575 8.64621L22.0825 4.89621C21.9653 4.66547 22.0605 4.38352 22.2912 4.26814C22.5183 4.15277 22.8039 4.24617 22.9211 4.47873L24.7961 8.22873C24.9097 8.45947 24.8181 8.74148 24.5837 8.8568ZM7.96875 22.6429V20.4822C7.69406 20.3174 7.5 20.0317 7.5 19.6876C7.5 19.1694 7.92117 18.7501 8.4375 18.7501C8.95752 18.7501 9.375 19.1694 9.375 19.6876C9.375 20.0318 9.18275 20.3174 8.90625 20.4822V22.6429C9.18275 22.8077 9.375 23.0933 9.375 23.4376C9.375 23.9558 8.95752 24.3751 8.4375 24.3751C7.92111 24.3751 7.5 23.9558 7.5 23.4376C7.5 23.0933 7.69412 22.8076 7.96875 22.6429ZM3.75 0.9375C3.75 0.419297 4.17117 0 4.6875 0H25.3125C25.8325 0 26.25 0.419297 26.25 0.9375C26.25 1.4557 25.8325 1.875 25.3125 1.875H4.6875C4.17117 1.875 3.75 1.4557 3.75 0.9375ZM16.4319 20.9564L15.7691 20.2935L18.4205 17.6422L19.0833 18.305L16.4319 20.9564ZM16.4319 23.6078L15.7691 22.9449L21.0718 17.6422L21.7346 18.305L16.4319 23.6078ZM21.0718 20.2936L21.7346 20.9565L19.0832 23.6078L18.4204 22.945L21.0718 20.2936Z" fill="black"/>
</svg>
