<svg width="34" height="30" viewBox="0 0 34 30" fill="none" xmlns="http://www.w3.org/2000/svg">
<path d="M25.0133 0C21.5396 0 18.9111 1.9489 16.6756 3.98542C14.5453 1.82433 11.8115 0 8.33778 0C3.44557 0 0 4.02126 0 8.40627C0 10.7587 1.00784 12.4535 2.11153 14.0446L15.0695 28.8963C16.5244 30.3679 16.7986 30.3679 18.2535 28.8963L31.2406 14.0446C32.5382 12.4535 33.3511 10.7587 33.3511 8.40627C33.3511 4.02131 29.9055 0 25.0133 0ZM29.1822 13.6322L16.6756 27.8979L4.16889 13.5733C2.67332 11.5856 2.08445 10.2446 2.08445 8.40627C2.08445 4.98078 4.64311 1.89706 8.33778 1.86815C11.3769 1.84423 14.8215 4.81137 16.6756 7.0482C18.4807 4.88909 21.9742 1.86815 25.0133 1.86815C28.61 1.86815 31.2667 4.98078 31.2667 8.40627C31.2667 10.2446 30.8008 11.6852 29.1822 13.6322Z" fill="black"/>
</svg>
