<svg width="46" height="46" viewBox="0 0 46 46" fill="none" xmlns="http://www.w3.org/2000/svg">
<g filter="url(#filter0_d_16_81)">
<path d="M21.0101 0.166656C15.2813 0.166656 10.5802 4.85142 10.5802 10.5803C10.5802 16.3091 15.2813 21.0102 21.0101 21.0102C26.739 21.0102 31.4197 16.3091 31.4197 10.5803C31.4197 4.85142 26.739 0.166656 21.0101 0.166656ZM12.6719 23.0856C6.41724 23.0856 0.166626 27.2526 0.166626 33.4951V38.1261C0.563634 40.7311 2.25016 41.8374 4.33777 41.8333H37.6662C39.7538 41.8375 41.132 40.0947 41.8333 38.1261V33.4951C41.8375 25.1691 35.5867 23.0856 29.328 23.0856H12.6719Z" fill="#AC89DB"/>
</g>
<defs>
<filter id="filter0_d_16_81" x="0.166626" y="0.166656" width="51.6666" height="51.6667" filterUnits="userSpaceOnUse" color-interpolation-filters="sRGB">
<feFlood flood-opacity="0" result="BackgroundImageFix"/>
<feColorMatrix in="SourceAlpha" type="matrix" values="0 0 0 0 0 0 0 0 0 0 0 0 0 0 0 0 0 0 127 0" result="hardAlpha"/>
<feOffset dx="5" dy="5"/>
<feGaussianBlur stdDeviation="2.5"/>
<feComposite in2="hardAlpha" operator="out"/>
<feColorMatrix type="matrix" values="0 0 0 0 1 0 0 0 0 1 0 0 0 0 1 0 0 0 0.25 0"/>
<feBlend mode="normal" in2="BackgroundImageFix" result="effect1_dropShadow_16_81"/>
<feBlend mode="normal" in="SourceGraphic" in2="effect1_dropShadow_16_81" result="shape"/>
</filter>
</defs>
</svg>
