<svg width="31" height="36" viewBox="0 0 31 36" fill="none" xmlns="http://www.w3.org/2000/svg">
<path d="M12.8999 18H29.1499" stroke="#F731A3" stroke-width="2" stroke-linecap="round" stroke-linejoin="round"/>
<path d="M22.9126 29.25V33H2.9126V3H22.9126V6.75H25.4126V1.75C25.4126 1.41848 25.2809 1.10054 25.0465 0.866116C24.8121 0.631696 24.4941 0.5 24.1626 0.5H1.6626C1.33108 0.5 1.01313 0.631696 0.778714 0.866116C0.544294 1.10054 0.412598 1.41848 0.412598 1.75V34.25C0.412598 34.5815 0.544294 34.8995 0.778714 35.1339C1.01313 35.3683 1.33108 35.5 1.6626 35.5H24.1626C24.4941 35.5 24.8121 35.3683 25.0465 35.1339C25.2809 34.8995 25.4126 34.5815 25.4126 34.25V29.25H22.9126Z" fill="#F731A3"/>
<path d="M29.1499 18L24.1499 23" stroke="#F731A3" stroke-width="2" stroke-linecap="round" stroke-linejoin="round"/>
<path d="M29.1499 18L24.1499 13" stroke="#F731A3" stroke-width="2" stroke-linecap="round" stroke-linejoin="round"/>
<path d="M24.1499 8.11249V5.61249" stroke="#F731A3" stroke-width="2" stroke-linecap="round" stroke-linejoin="round"/>
<path d="M24.1499 30.5V28" stroke="#F731A3" stroke-width="2" stroke-linecap="round" stroke-linejoin="round"/>
</svg>
