<svg width="23" height="23" viewBox="0 0 23 23" fill="none" xmlns="http://www.w3.org/2000/svg">
<path d="M22.2285 1.19831C22.0472 1.0171 21.8323 0.926194 21.584 0.926194C21.3357 0.926194 21.1211 1.0171 20.9395 1.19831L19.0776 3.04627C18.0559 2.08173 16.886 1.33437 15.5684 0.804535C14.2508 0.274655 12.8945 0.00976562 11.5003 0.00976562C8.87433 0.00976562 6.58273 0.804586 4.62515 2.39458C2.66753 3.98437 1.3785 6.05863 0.757812 8.61788V8.71807C0.757812 8.84218 0.803115 8.9497 0.89387 9.0403C0.984624 9.13105 1.09199 9.17636 1.2161 9.17636H4.06638C4.27653 9.17636 4.41966 9.06649 4.49612 8.847C4.89712 7.89219 5.15007 7.33362 5.25522 7.17122C5.92356 6.08267 6.8116 5.22799 7.91932 4.60731C9.02714 3.98667 10.2207 3.67623 11.5001 3.67623C13.4196 3.67623 15.0858 4.33038 16.4992 5.63857L14.5222 7.61506C14.3413 7.79652 14.2503 8.01149 14.2503 8.25978C14.2503 8.50801 14.3412 8.72288 14.5222 8.90429C14.7039 9.08575 14.9188 9.17641 15.1671 9.17641H21.584C21.8323 9.17641 22.0472 9.08575 22.2285 8.90429C22.4098 8.72288 22.5004 8.50806 22.5004 8.25978V1.84287C22.5004 1.59459 22.4103 1.37982 22.2285 1.19831Z" fill="black"/>
<path d="M21.6838 12.8434H18.9338C18.7237 12.8434 18.5804 12.9531 18.5042 13.1728C18.1034 14.1277 17.8501 14.686 17.7452 14.8484C17.0767 15.9367 16.1886 16.7917 15.0812 17.4123C13.9733 18.0332 12.7797 18.3433 11.5003 18.3433C10.5741 18.3433 9.68119 18.1715 8.8219 17.8279C7.96252 17.4838 7.19374 16.9967 6.51586 16.3665L8.4782 14.4043C8.65956 14.223 8.75031 14.0079 8.75031 13.7598C8.75031 13.5115 8.65956 13.2964 8.4782 13.1152C8.29674 12.9336 8.08197 12.8428 7.83368 12.8428H1.41678C1.16835 12.8428 0.953473 12.9336 0.772064 13.1152C0.590655 13.2964 0.5 13.5116 0.5 13.7598V20.1767C0.5 20.4248 0.590654 20.6399 0.772114 20.8212C0.953674 21.0023 1.16855 21.0935 1.41683 21.0935C1.66506 21.0935 1.87984 21.0024 2.06134 20.8212L3.909 18.9734C4.93078 19.9471 6.09344 20.6969 7.39687 21.2221C8.7003 21.7474 10.0491 22.0098 11.4431 22.0098C14.0596 22.0098 16.3417 21.2148 18.2897 19.6251C20.2376 18.0353 21.5171 15.9606 22.1286 13.4017C22.1381 13.3826 22.1426 13.3491 22.1426 13.3016C22.1426 13.1772 22.0971 13.0702 22.0064 12.9791C21.9156 12.8889 21.8081 12.8434 21.6838 12.8434Z" fill="black"/>
</svg>
