<svg width="18" height="20" viewBox="0 0 18 20" fill="none" xmlns="http://www.w3.org/2000/svg">
<path d="M9.15162 8.0005C8.01711 8.00066 6.91776 8.39419 6.04087 9.11404C5.16398 9.83388 4.56381 10.8355 4.34263 11.9482C4.12144 13.061 4.29292 14.216 4.82785 15.2165C5.36278 16.2169 6.22807 17.001 7.27627 17.435C8.32447 17.8691 9.49074 17.9262 10.5764 17.5968C11.662 17.2673 12.5998 16.5716 13.23 15.6282C13.8602 14.6849 14.1438 13.5522 14.0324 12.4231C13.9211 11.2941 13.4218 10.2386 12.6195 9.43644C12.165 8.97986 11.6245 8.61788 11.0293 8.37141C10.434 8.12494 9.79586 7.99888 9.15162 8.0005ZM9.15162 17.0121C8.08487 16.9788 7.07296 16.5316 6.33015 15.7653C5.58734 14.9989 5.17196 13.9736 5.17196 12.9063C5.17196 11.839 5.58734 10.8137 6.33015 10.0473C7.07296 9.28094 8.08487 8.83377 9.15162 8.80047C10.2184 8.83377 11.2303 9.28094 11.9731 10.0473C12.7159 10.8137 13.1313 11.839 13.1313 12.9063C13.1313 13.9736 12.7159 14.9989 11.9731 15.7653C11.2303 16.5316 10.2184 16.9788 9.15162 17.0121Z" fill="black"/>
<path d="M0.991973 5.22482C1.51172 5.48378 1.93296 5.90502 2.19192 6.42477C2.38791 6.82475 2.52791 7.09674 2.86389 7.09674C3.19988 7.09674 3.31987 6.80075 3.51586 6.40077C3.76966 5.88413 4.18351 5.46326 4.69581 5.20082C5.0958 5.00483 5.36779 4.86083 5.36779 4.52485C5.36779 4.18886 5.0878 4.04887 4.69581 3.85288C4.18436 3.58928 3.77083 3.16874 3.51586 2.65293C3.31987 2.25295 3.17988 1.98096 2.84389 1.98096C2.50791 1.98096 2.36791 2.26095 2.17192 2.65293C1.91177 3.17182 1.49087 3.59273 0.971974 3.85288C0.571991 4.04887 0.300003 4.19286 0.300003 4.52485C0.300003 4.85683 0.59999 5.02883 0.991973 5.22482ZM2.84389 3.13691C3.1665 3.73538 3.65736 4.22624 4.25583 4.54885C3.65708 4.87291 3.16626 5.36512 2.84389 5.96479C2.52008 5.36483 2.0279 4.87266 1.42795 4.54885C2.02762 4.22648 2.51983 3.73566 2.84389 3.13691Z" fill="black"/>
<path d="M16.6593 8.3365C16.5713 7.90852 16.5073 7.60053 16.1833 7.51253C15.8593 7.42454 15.6513 7.66053 15.3593 7.98851C15.1686 8.20364 14.9427 8.38486 14.6914 8.52449C14.1405 7.82461 13.4619 7.23556 12.6915 6.78856C12.8357 6.64046 12.9392 6.45762 12.9919 6.25777C13.0447 6.05791 13.0449 5.84781 12.9926 5.64783C12.9403 5.44786 12.8372 5.26479 12.6934 5.11636C12.5495 4.96793 12.3697 4.85918 12.1715 4.80065L12.6435 3.6647C12.6638 3.61591 12.6743 3.56357 12.6743 3.51071C12.6743 3.45784 12.6638 3.4055 12.6435 3.35671L11.7275 1.16081C11.6869 1.06307 11.6093 0.985406 11.5115 0.944817L9.30361 0.0328569C9.25587 0.0112024 9.20404 0 9.15162 0C9.09919 0 9.04737 0.0112024 8.99962 0.0328569L6.79172 0.944817C6.69398 0.985406 6.61632 1.06307 6.57573 1.16081L5.65977 3.36871C5.63941 3.4175 5.62894 3.46984 5.62894 3.52271C5.62894 3.57557 5.63941 3.62791 5.65977 3.6767L6.13575 4.82065C5.93997 4.88129 5.76299 4.99107 5.62168 5.13952C5.48037 5.28797 5.37943 5.47014 5.3285 5.66866C5.27756 5.86718 5.27833 6.07544 5.33072 6.27359C5.3831 6.47173 5.48537 6.65316 5.62777 6.80056C4.27566 7.57562 3.21765 8.77585 2.61835 10.2145C2.01905 11.6532 1.91207 13.2496 2.31406 14.7553C2.71606 16.2611 3.60447 17.5917 4.84108 18.5403C6.07768 19.4888 7.59313 20.002 9.15162 20C11.0279 19.9979 12.8268 19.2519 14.154 17.9255C15.4811 16.5991 16.2281 14.8006 16.2313 12.9243C16.2304 12.4676 16.1849 12.0122 16.0953 11.5644C16.4072 11.3277 16.7679 11.1637 17.1513 11.0844C17.5793 10.9924 17.8872 10.9284 17.9752 10.6084C18.0632 10.2884 17.8232 10.0724 17.4993 9.78044C17.0719 9.40145 16.7775 8.89532 16.6593 8.3365ZM9.5516 4.74465V3.92069H11.6755L11.3315 4.74465H9.5516ZM6.97171 4.74465L6.62773 3.91669H8.75163V4.74465H6.97171ZM9.5516 1.00082L10.6516 1.4568L9.5516 2.55675V1.00082ZM8.75163 2.55675L7.65168 1.4568L8.75163 1.00082V2.55675ZM11.6755 3.12072H10.1156L11.2195 2.02077L11.6755 3.12072ZM7.08371 2.02077L8.18766 3.12072H6.62773L7.08371 2.02077ZM6.52373 5.54862H11.7795C11.8338 5.54855 11.8875 5.55952 11.9373 5.58086C11.9872 5.6022 12.0322 5.63346 12.0696 5.67275C12.1071 5.71204 12.1361 5.75852 12.155 5.80938C12.1739 5.86025 12.1822 5.91442 12.1795 5.9686C12.1822 6.02279 12.1739 6.07696 12.155 6.12782C12.1361 6.17868 12.1071 6.22516 12.0696 6.26445C12.0322 6.30374 11.9872 6.335 11.9373 6.35634C11.8875 6.37768 11.8338 6.38865 11.7795 6.38858L6.52373 6.40058C6.46784 6.40203 6.41226 6.39174 6.36059 6.37038C6.30892 6.34903 6.2623 6.31707 6.22374 6.27659C6.14645 6.19588 6.10344 6.08835 6.10375 5.9766C6.10322 5.92092 6.11367 5.86568 6.13449 5.81404C6.15531 5.7624 6.1861 5.71537 6.2251 5.67562C6.2641 5.63588 6.31054 5.60421 6.36178 5.58242C6.41302 5.56063 6.46805 5.54914 6.52373 5.54862ZM9.15162 19.2C7.71636 19.1966 6.3257 18.701 5.21176 17.796C4.09782 16.8909 3.328 15.6312 3.03079 14.2271C2.73357 12.8229 2.92696 11.3593 3.57866 10.0805C4.23036 8.80177 5.30095 7.78521 6.61173 7.20055H11.6915C12.5414 7.57624 13.297 8.13644 13.9034 8.84048C13.4794 8.92847 13.1754 8.99647 13.1034 9.31646C13.0314 9.63644 13.2514 9.84843 13.5794 10.1404C14.0027 10.5214 14.294 11.0271 14.4114 11.5844C14.4994 12.0123 14.5634 12.3203 14.8874 12.4083C14.9303 12.4208 14.9747 12.4275 15.0194 12.4283C15.17 12.4216 15.3127 12.3589 15.4193 12.2523C15.4447 12.4808 15.4581 12.7104 15.4593 12.9403C15.4519 14.6065 14.7835 16.2017 13.6008 17.3754C12.4181 18.5491 10.8178 19.2053 9.15162 19.2ZM15.1514 11.3204C14.9956 10.6634 14.6524 10.0659 14.1634 9.60044C14.8257 9.44267 15.4276 9.09516 15.8953 8.60049C16.054 9.26242 16.4013 9.86407 16.8953 10.3324C16.2322 10.49 15.6274 10.8326 15.1514 11.3204Z" fill="black"/>
</svg>
