<svg width="27" height="20" viewBox="0 0 27 20" fill="none" xmlns="http://www.w3.org/2000/svg">
<path d="M17.8261 1.30859C17.6971 1.30859 17.571 1.34684 17.4638 1.4185C17.3565 1.49017 17.2729 1.59202 17.2236 1.71119C17.1742 1.83036 17.1613 1.96149 17.1865 2.088C17.2116 2.21451 17.2737 2.33072 17.3649 2.42192C17.4561 2.51313 17.5724 2.57525 17.6989 2.60041C17.8254 2.62557 17.9565 2.61266 18.0757 2.5633C18.1948 2.51394 18.2967 2.43035 18.3684 2.3231C18.44 2.21585 18.4783 2.08976 18.4783 1.96077C18.4783 1.7878 18.4096 1.62192 18.2873 1.49961C18.1649 1.3773 17.9991 1.30859 17.8261 1.30859Z" fill="black"/>
<path d="M15.2174 1.30859C15.0884 1.30859 14.9623 1.34684 14.8551 1.4185C14.7478 1.49017 14.6642 1.59202 14.6149 1.71119C14.5655 1.83036 14.5526 1.96149 14.5777 2.088C14.6029 2.21451 14.665 2.33072 14.7562 2.42192C14.8474 2.51313 14.9636 2.57525 15.0902 2.60041C15.2167 2.62557 15.3478 2.61266 15.467 2.5633C15.5861 2.51394 15.688 2.43035 15.7597 2.3231C15.8313 2.21585 15.8696 2.08976 15.8696 1.96077C15.8696 1.7878 15.8009 1.62192 15.6785 1.49961C15.5562 1.3773 15.3904 1.30859 15.2174 1.30859Z" fill="black"/>
<path d="M22.9739 5.21739L21.2348 3.04348H21.1304V0.434783C21.1304 0.319471 21.0846 0.208882 21.0031 0.127345C20.9216 0.045807 20.811 0 20.6957 0H6.29131C6.06068 0 5.83951 0.0916148 5.67643 0.25469C5.51336 0.417765 5.42174 0.638942 5.42174 0.869565V3.22609L3.84348 5.21739L0.800003 17.3913L12.1044 20L13.2609 13.0435H13.6217L14.713 20L26.0174 17.3913L22.9739 5.21739ZM13.2739 0.869565H20.2304V3.04348H13.2739V0.869565ZM14.713 4.34783V6.95652C14.7132 7.22637 14.6296 7.48962 14.4739 7.70999C14.3182 7.93036 14.0979 8.09701 13.8435 8.18696V4.34783H14.713ZM11.5348 0.869565H12.4044V3.04348H11.5348V0.869565ZM9.57826 0.869565H10.6652V3.04348H9.57826C9.28999 3.04348 9.01351 2.92896 8.80967 2.72512C8.60583 2.52127 8.49131 2.2448 8.49131 1.95652C8.49131 1.66824 8.60583 1.39177 8.80967 1.18793C9.01351 0.984084 9.28999 0.869565 9.57826 0.869565ZM6.27826 0.869565H7.95218C7.73665 1.1911 7.62158 1.56944 7.62158 1.95652C7.62158 2.3436 7.73665 2.72195 7.95218 3.04348H6.26522L6.27826 0.869565ZM14.4783 13.0043C14.5553 12.9608 14.6172 12.8948 14.6558 12.8151C14.6943 12.7355 14.7076 12.6459 14.6939 12.5585C14.6802 12.4711 14.6401 12.3899 14.5791 12.3258C14.518 12.2618 14.4389 12.2179 14.3522 12.2H12.5391C12.4506 12.214 12.3686 12.255 12.3043 12.3174C12.24 12.3798 12.1966 12.4606 12.1799 12.5486C12.1633 12.6367 12.1742 12.7277 12.2113 12.8093C12.2483 12.8908 12.3097 12.959 12.387 13.0043L11.4087 18.9435L1.84348 16.7435L3.54348 9.99131C7.36957 9.7 8.19131 7.49565 8.19131 5.68261H7.32174C7.32174 7.75217 6.19566 8.84348 3.78261 9.1L4.65218 5.62174L6.0174 3.91739H12.9739V10.0043C12.9739 10.1197 13.0197 10.2302 13.1013 10.3118C13.1828 10.3933 13.2934 10.4391 13.4087 10.4391C13.524 10.4391 13.6346 10.3933 13.7161 10.3118C13.7977 10.2302 13.8435 10.1197 13.8435 10.0043V9.0913C14.3345 8.99107 14.7758 8.72427 15.0927 8.33605C15.4097 7.94782 15.5827 7.46202 15.5826 6.96087V3.91739H20.8L22.1652 5.61304L23.0348 9.06087C20.6087 8.81304 19.4957 7.71739 19.4957 5.65217H18.6261C18.6261 7.45217 19.4261 9.64783 23.2131 9.95652H23.2609L24.9565 16.7478L15.413 18.9522L14.4783 13.0043Z" fill="black"/>
</svg>
